<svg xmlns="http://www.w3.org/2000/svg" version="1.1" x="0px" y="0px" viewBox="0 0 100 100" enableBackground="new 0 0 100 100">
<g data-bx-workspace="master" version="1.1" x="0px" y="0px" viewBox="0 0 100 125" enableBackground="new 0 0 100 100">
<path fill="white" stroke="transparent" d="M 42.987 12.233 C 33.228 12.233 24.432 16.628 18.195 23.629 C 18.151 23.67 18.095 23.684 18.054 23.729 C 17.987 23.799 17.964 23.893 17.903 23.969 C 12.262 30.463 8.783 39.113 8.783 48.633 C 8.783 68.703 24.125 85.031 42.986 85.031 C 61.844 85.031 77.189 68.703 77.189 48.633 C 77.19 28.561 61.845 12.233 42.987 12.233 Z M 14.296 48.632 C 14.296 41.685 16.512 35.292 20.198 30.155 L 60.345 72.882 C 55.518 76.804 49.514 79.163 42.986 79.163 C 27.166 79.163 14.296 65.466 14.296 48.632 Z M 64.392 68.89 L 23.948 25.854 C 29.02 21.047 35.678 18.098 42.987 18.098 C 58.806 18.098 71.677 31.795 71.677 48.632 C 71.676 56.41 68.907 63.496 64.392 68.89 Z"></path>
</g>
</svg>