<svg width="21" height="22" viewBox="0 0 21 22" fill="none" xmlns="http://www.w3.org/2000/svg">
<g clip-path="url(#clip0_4049_15404)">
<path d="M0.560438 3.01678L2.15513 4.61147C3.63815 2.66995 5.75165 1.30619 8.13178 0.754959C10.5119 0.203731 13.0098 0.499525 15.1953 1.59142C17.3809 2.68332 19.1174 4.503 20.1059 6.7372C21.0945 8.97141 21.2732 11.4803 20.6113 13.8321C19.9494 16.1839 18.4883 18.2313 16.4796 19.622C14.4709 21.0126 12.0402 21.6595 9.60594 21.4511C7.17171 21.2428 4.88625 20.1924 3.14301 18.4807C1.39977 16.769 0.307813 14.5031 0.0551255 12.073C0.0283221 11.8132 0.105843 11.5533 0.270635 11.3506C0.435427 11.1479 0.67399 11.019 0.933844 10.9922C1.1937 10.9654 1.45356 11.0429 1.65625 11.2077C1.85895 11.3725 1.98788 11.6111 2.01469 11.8709C2.22162 13.8559 3.11793 15.7056 4.54768 17.098C5.97743 18.4905 7.85012 19.3376 9.83992 19.492C11.8297 19.6465 13.8107 19.0984 15.4381 17.9431C17.0656 16.7879 18.2365 15.0987 18.7472 13.1693C19.2579 11.24 19.076 9.19269 18.2332 7.38361C17.3903 5.57452 15.9399 4.11818 14.1343 3.26796C12.3287 2.41775 10.2821 2.22749 8.35073 2.73027C6.41932 3.23306 4.72531 4.39707 3.56344 6.01978L5.34581 7.80216C5.39182 7.84805 5.42317 7.90657 5.43588 7.9703C5.44859 8.03402 5.44209 8.10009 5.4172 8.16012C5.39232 8.22015 5.35017 8.27144 5.2961 8.30748C5.24204 8.34353 5.17848 8.36271 5.1135 8.3626H0.328126C0.241101 8.3626 0.157641 8.32803 0.0961061 8.26649C0.0345707 8.20495 5.25427e-07 8.12149 5.25427e-07 8.03447V3.2491C-0.000115739 3.18411 0.0190654 3.12056 0.0551123 3.06649C0.0911591 3.01242 0.142448 2.97028 0.202478 2.94539C0.262507 2.92051 0.328573 2.91401 0.392301 2.92672C0.456028 2.93943 0.514547 2.97078 0.560438 3.01678ZM10.1719 5.7376C10.4329 5.7376 10.6833 5.84131 10.8679 6.02591C11.0525 6.21052 11.1562 6.4609 11.1562 6.72197V10.649L13.818 11.7147C14.0526 11.817 14.2381 12.0065 14.3353 12.2433C14.4324 12.48 14.4336 12.7452 14.3386 12.9828C14.2435 13.2204 14.0597 13.4116 13.826 13.5159C13.5924 13.6202 13.3273 13.6295 13.0869 13.5417L9.80569 12.2292C9.62331 12.1559 9.46701 12.0298 9.35685 11.867C9.2467 11.7043 9.18772 11.5123 9.1875 11.3157V6.72197C9.1875 6.4609 9.29121 6.21052 9.47582 6.02591C9.66042 5.84131 9.9108 5.7376 10.1719 5.7376Z" fill="#37E0CC"/>
</g>
<defs>
<clipPath id="clip0_4049_15404">
<rect width="21.0041" height="21.0053" fill="white" transform="translate(0 0.484131)"/>
</clipPath>
</defs>
</svg>
