<svg width="26" height="30" viewBox="0 0 26 30" fill="none" xmlns="http://www.w3.org/2000/svg">
<path fill-rule="evenodd" clip-rule="evenodd" d="M13 0.641846L23.8108 4.35806C23.8785 4.38513 23.9543 4.41135 24.0354 4.43937C24.6284 4.6444 25.5 4.94577 25.5 6.38508V9.42562C25.5 9.76346 25.2973 10.777 24.4865 10.777C23.473 10.777 23.473 9.76358 23.473 9.42568V9.42562L23.4729 7.3986C23.4729 6.6307 23.1541 6.51722 22.9188 6.43348C22.8744 6.41769 22.833 6.40295 22.7973 6.38508L13 3.00671L3.20273 6.38508C2.9775 6.4977 2.52702 6.85806 2.52702 7.3986C2.52702 7.43305 2.52718 7.46751 2.52734 7.50187C2.53028 8.14143 2.53307 8.74995 1.51354 8.74995C0.837865 8.74995 0.5 8.07427 0.5 7.3986C0.5 6.72292 0.500036 5.03373 1.51354 4.6959C1.93564 4.5552 3.14567 4.12133 4.67486 3.57303L4.67488 3.57303C7.29985 2.63183 10.8653 1.35343 13 0.641846ZM2.52705 10.777C2.52704 11.7905 2.86488 17.1959 5.56758 20.9121C7.72974 23.8851 11.4234 26.2049 13 26.9932C14.6892 26.2049 18.3553 24.0277 20.4324 20.9121C22.4594 17.8716 23.4729 14.1553 23.4729 13.4797C23.4729 12.804 23.6757 11.7905 24.4865 11.7905C25.2973 11.7905 25.2748 12.9166 25.1622 13.4797C24.9369 15.0562 24.1486 18.7499 22.7973 20.9121C21.4459 23.0743 19.7568 24.7409 19.0811 25.304C17.955 26.3175 15.1622 28.5472 13 29.358C11.6487 28.6824 8.54053 26.9256 6.91891 25.304C5.29729 23.6824 3.76577 21.4752 3.20272 20.5743C0.837861 16.858 0.837855 11.7819 0.837855 10.777C0.837855 9.96616 1.28831 9.76346 1.51354 9.76346C1.85138 9.76346 2.52706 9.96616 2.52705 10.777ZM5.9054 20.9121C6.91891 22.2634 10.3217 25.5328 13 26.6553C14.3513 26.0923 17.6621 24.1553 20.0946 20.9121C19.8693 20.4616 19.2162 19.4256 18.4054 18.8851C17.5946 18.3445 16.491 17.7589 16.0405 17.5337C15.7027 17.4211 15.027 17.1283 15.027 16.858C15.027 16.5878 15.2522 16.0698 15.3648 15.8445C15.8153 15.1689 16.7162 13.3445 16.7162 11.4526C16.7162 9.08778 16.2546 6.04812 12.9381 6.04769C9.74642 6.09321 8.94594 9.66236 8.94594 11.4526C8.94594 13.8851 10.2973 15.5067 10.6351 15.8445C10.9824 16.1918 10.9775 16.5213 10.9737 16.7813C10.9733 16.8076 10.973 16.8332 10.973 16.858C10.973 17.1283 10.2973 17.4211 9.95945 17.5337C9.62161 17.6463 8.67567 18.0743 7.59459 18.8851C6.51351 19.6959 6.01801 20.5743 5.9054 20.9121Z" fill="white"/>
<path d="M23.8108 4.35806L23.848 4.2651L23.8433 4.26349L23.8108 4.35806ZM13 0.641846L13.0325 0.547277L13.0005 0.536272L12.9684 0.546977L13 0.641846ZM24.0354 4.43937L24.068 4.34486L24.0354 4.43937ZM23.473 9.42568H23.373V9.42569L23.473 9.42568ZM23.473 9.42562H23.573V9.42562L23.473 9.42562ZM23.4729 7.3986H23.3729V7.3986L23.4729 7.3986ZM22.9188 6.43348L22.8853 6.52769L22.9188 6.43348ZM22.7973 6.38508L22.8424 6.29486L22.8299 6.29055L22.7973 6.38508ZM13 3.00671L13.0326 2.91217L13 2.90093L12.9674 2.91217L13 3.00671ZM3.20273 6.38508L3.16984 6.28972L3.15801 6.29564L3.20273 6.38508ZM2.52734 7.50187L2.62734 7.50142L2.52734 7.50187ZM1.51354 4.6959L1.54516 4.79076L1.51354 4.6959ZM4.67486 3.57303L4.64235 3.47846L4.6411 3.4789L4.67486 3.57303ZM4.67488 3.57303L4.70739 3.6676L4.70863 3.66716L4.67488 3.57303ZM5.56758 20.9121L5.64845 20.8533L5.56758 20.9121ZM2.52705 10.777L2.42705 10.777L2.52705 10.777ZM13 26.9932L12.9553 27.0826L12.9985 27.1042L13.0423 27.0838L13 26.9932ZM20.4324 20.9121L20.3492 20.8566L20.4324 20.9121ZM25.1622 13.4797L25.0639 13.46L25.0632 13.4655L25.1622 13.4797ZM22.7973 20.9121L22.7125 20.8591L22.7973 20.9121ZM19.0811 25.304L19.017 25.2271L19.0142 25.2297L19.0811 25.304ZM13 29.358L12.9553 29.4475L12.9943 29.467L13.0351 29.4517L13 29.358ZM6.91891 25.304L6.98962 25.2333L6.91891 25.304ZM3.20272 20.5743L3.28752 20.5213L3.28708 20.5206L3.20272 20.5743ZM13 26.6553L12.9613 26.7476L12.9999 26.7637L13.0384 26.7476L13 26.6553ZM5.9054 20.9121L5.81053 20.8805L5.79396 20.9302L5.8254 20.9721L5.9054 20.9121ZM20.0946 20.9121L20.1746 20.9721L20.2117 20.9227L20.184 20.8674L20.0946 20.9121ZM18.4054 18.8851L18.3499 18.9683L18.4054 18.8851ZM16.0405 17.5337L16.0852 17.4443L16.0789 17.4411L16.0721 17.4389L16.0405 17.5337ZM15.3648 15.8445L15.281 15.7886L15.2754 15.7998L15.3648 15.8445ZM12.9381 6.04769L12.9381 5.94767L12.9367 5.9477L12.9381 6.04769ZM10.9737 16.7813L11.0737 16.7828V16.7828L10.9737 16.7813ZM7.59459 18.8851L7.65459 18.9651L7.59459 18.8851ZM23.8433 4.26349L13.0325 0.547277L12.9675 0.736414L23.7783 4.45263L23.8433 4.26349ZM24.068 4.34486C23.9864 4.31664 23.913 4.29123 23.848 4.26521L23.7737 4.45091C23.844 4.47904 23.9222 4.50606 24.0027 4.53388L24.068 4.34486ZM25.6 6.38508C25.6 5.64295 25.3742 5.18007 25.0594 4.8773C24.7493 4.57905 24.3624 4.44662 24.068 4.34486L24.0027 4.53388C24.3013 4.63714 24.6467 4.75792 24.9207 5.02144C25.19 5.28044 25.4 5.68791 25.4 6.38508H25.6ZM25.6 9.42562V6.38508H25.4V9.42562H25.6ZM24.4865 10.877C24.9434 10.877 25.2246 10.5879 25.3862 10.2737C25.5467 9.96176 25.6 9.60777 25.6 9.42562H25.4C25.4 9.58131 25.352 9.903 25.2084 10.1822C25.0659 10.4592 24.8403 10.677 24.4865 10.677V10.877ZM23.373 9.42569C23.373 9.59291 23.3719 9.9505 23.5078 10.2674C23.5765 10.4278 23.6818 10.5817 23.843 10.6951C24.0048 10.809 24.2157 10.877 24.4865 10.877V10.677C24.2505 10.677 24.0813 10.6183 23.9581 10.5316C23.8343 10.4444 23.7495 10.3238 23.6916 10.1886C23.5741 9.91441 23.573 9.59636 23.573 9.42568L23.373 9.42569ZM23.373 9.42562V9.42568H23.573V9.42562H23.373ZM23.3729 7.3986L23.373 9.42562L23.573 9.42562L23.573 7.39859L23.3729 7.3986ZM22.8853 6.52769C23.0038 6.56988 23.1168 6.61176 23.2064 6.72239C23.2957 6.83272 23.3729 7.02713 23.3729 7.3986H23.573C23.573 7.00216 23.4908 6.75588 23.3618 6.59656C23.2331 6.43755 23.0691 6.38082 22.9523 6.33927L22.8853 6.52769ZM22.7526 6.47453C22.7948 6.49565 22.8424 6.51242 22.8853 6.52769L22.9523 6.33927C22.9065 6.32295 22.8712 6.31025 22.842 6.29564L22.7526 6.47453ZM12.9674 3.10125L22.7647 6.47962L22.8299 6.29055L13.0326 2.91217L12.9674 3.10125ZM3.23533 6.47962L13.0326 3.10125L12.9674 2.91217L3.17013 6.29055L3.23533 6.47962ZM2.62702 7.3986C2.62702 7.15752 2.72726 6.95396 2.85775 6.79476C2.98893 6.63473 3.14643 6.52503 3.24745 6.47453L3.15801 6.29564C3.0338 6.35774 2.85344 6.48454 2.70308 6.66797C2.55203 6.85224 2.42702 7.09913 2.42702 7.3986H2.62702ZM2.62734 7.50142C2.62718 7.46701 2.62702 7.43278 2.62702 7.3986H2.42702C2.42702 7.43332 2.42718 7.468 2.42734 7.50233L2.62734 7.50142ZM1.51354 8.84995C2.04353 8.84995 2.34115 8.69001 2.49169 8.41357C2.56372 8.28129 2.59707 8.13063 2.61301 7.97702C2.62893 7.82367 2.62807 7.66011 2.62734 7.50142L2.42734 7.50233C2.42808 7.66341 2.42867 7.81575 2.41408 7.95637C2.39951 8.09674 2.37039 8.21812 2.31604 8.31792C2.21383 8.50562 2.00309 8.64995 1.51354 8.64995V8.84995ZM0.4 7.3986C0.4 7.75127 0.487873 8.10966 0.670188 8.38312C0.854478 8.65954 1.13691 8.84995 1.51354 8.84995V8.64995C1.21449 8.64995 0.990156 8.50251 0.836596 8.27218C0.68106 8.03888 0.6 7.7216 0.6 7.3986H0.4ZM1.48192 4.60103C0.922769 4.78741 0.657731 5.34143 0.529267 5.89807C0.399654 6.45969 0.4 7.0618 0.4 7.3986H0.6C0.6 7.05971 0.600364 6.47939 0.724145 5.94304C0.849075 5.40171 1.09081 4.94222 1.54516 4.79076L1.48192 4.60103ZM4.6411 3.4789C3.11102 4.02752 1.90261 4.46079 1.48192 4.60103L1.54516 4.79076C1.96866 4.6496 3.18031 4.21514 4.70861 3.66717L4.6411 3.4789ZM4.64237 3.47846L4.64235 3.47846L4.70736 3.6676L4.70739 3.66759L4.64237 3.47846ZM12.9684 0.546977C10.8323 1.25901 7.2656 2.53787 4.64113 3.47889L4.70863 3.66716C7.3341 2.72578 10.8982 1.44785 13.0316 0.736714L12.9684 0.546977ZM5.64845 20.8533C4.30856 19.0109 3.55235 16.7456 3.13152 14.8098C2.71082 12.8746 2.62705 11.277 2.62705 10.777L2.42705 10.777C2.42705 11.2905 2.51219 12.9023 2.93608 14.8523C3.35984 16.8016 4.1239 19.0971 5.48671 20.9709L5.64845 20.8533ZM13.0447 26.9037C11.4748 26.1188 7.79719 23.8078 5.64845 20.8533L5.48671 20.9709C7.66229 23.9623 11.372 26.291 12.9553 27.0826L13.0447 26.9037ZM20.3492 20.8566C18.287 23.95 14.6402 26.1174 12.9577 26.9026L13.0423 27.0838C14.7382 26.2924 18.4237 24.1055 20.5156 20.9676L20.3492 20.8566ZM23.3729 13.4797C23.3729 13.6343 23.3129 13.9819 23.1861 14.4735C23.0603 14.961 22.8712 15.5808 22.6188 16.2749C22.1139 17.6634 21.357 19.3449 20.3492 20.8566L20.5156 20.9676C21.5348 19.4388 22.2982 17.7418 22.8068 16.3432C23.0612 15.6437 23.2522 15.0177 23.3797 14.5234C23.5063 14.0332 23.573 13.6629 23.573 13.4797H23.3729ZM24.4865 11.6905C24.0275 11.6905 23.7459 11.982 23.5845 12.3407C23.4243 12.6965 23.3729 13.1347 23.3729 13.4797H23.573C23.573 13.149 23.6229 12.7425 23.7669 12.4227C23.9095 12.1057 24.1346 11.8905 24.4865 11.8905V11.6905ZM25.2602 13.4993C25.318 13.2103 25.3541 12.7723 25.268 12.4013C25.2249 12.2153 25.1491 12.0379 25.022 11.9059C24.8922 11.7711 24.7151 11.6905 24.4865 11.6905V11.8905C24.6632 11.8905 24.7875 11.9507 24.8779 12.0446C24.9711 12.1413 25.0347 12.2806 25.0732 12.4465C25.1504 12.7793 25.1189 13.186 25.0641 13.4601L25.2602 13.4993ZM22.8821 20.9651C23.5652 19.8721 24.1032 18.3975 24.4982 17.0036C24.8936 15.6083 25.1479 14.2863 25.2611 13.4938L25.0632 13.4655C24.9511 14.2496 24.6987 15.5628 24.3058 16.949C23.9126 18.3366 23.3807 19.7899 22.7125 20.8591L22.8821 20.9651ZM19.1451 25.3808C19.8277 24.812 21.5243 23.1375 22.8821 20.9651L22.7125 20.8591C21.3675 23.011 19.6858 24.6699 19.0171 25.2272L19.1451 25.3808ZM13.0351 29.4517C14.1284 29.0417 15.3755 28.2756 16.4869 27.4886C17.5994 26.7008 18.5822 25.8875 19.148 25.3783L19.0142 25.2297C18.4538 25.734 17.4772 26.5423 16.3713 27.3254C15.2642 28.1094 14.0338 28.8636 12.9649 29.2644L13.0351 29.4517ZM6.8482 25.3747C8.48213 27.0086 11.603 28.7713 12.9553 29.4475L13.0447 29.2686C11.6943 28.5934 8.59894 26.8426 6.98962 25.2333L6.8482 25.3747ZM3.11792 20.6273C3.68307 21.5315 5.21917 23.7457 6.8482 25.3747L6.98962 25.2333C5.37542 23.6191 3.84848 21.4188 3.28752 20.5213L3.11792 20.6273ZM0.737855 10.777C0.737855 11.7798 0.735958 16.8842 3.11835 20.6279L3.28708 20.5206C0.939764 16.8319 0.937855 11.7841 0.937855 10.777H0.737855ZM1.51354 9.66346C1.3741 9.66346 1.17824 9.72501 1.01786 9.89822C0.856091 10.0729 0.737855 10.3527 0.737855 10.777H0.937855C0.937855 10.3904 1.04485 10.1634 1.16461 10.0341C1.28576 9.90326 1.42775 9.86346 1.51354 9.86346V9.66346ZM2.62705 10.777C2.62706 10.339 2.44232 10.0556 2.20542 9.88501C1.97362 9.71811 1.69846 9.66346 1.51354 9.66346V9.86346C1.66646 9.86346 1.89806 9.91016 2.08856 10.0473C2.27396 10.1808 2.42706 10.4042 2.42705 10.777L2.62705 10.777ZM13.0386 26.5631C11.714 26.0079 10.2031 24.918 8.89355 23.7936C7.58437 22.6696 6.48617 21.5198 5.9854 20.8521L5.8254 20.9721C6.33814 21.6557 7.4481 22.8162 8.76326 23.9454C10.078 25.0742 11.6077 26.1802 12.9613 26.7476L13.0386 26.5631ZM20.0146 20.8521C17.5949 24.0784 14.2998 26.0054 12.9615 26.563L13.0384 26.7476C14.4029 26.1791 17.7294 24.2323 20.1746 20.9721L20.0146 20.8521ZM18.3499 18.9683C19.1392 19.4945 19.7828 20.5121 20.0051 20.9568L20.184 20.8674C19.9559 20.4112 19.2931 19.3567 18.4609 18.8019L18.3499 18.9683ZM15.9958 17.6232C16.4448 17.8477 17.5441 18.4311 18.3499 18.9683L18.4609 18.8019C17.645 18.258 16.5372 17.6702 16.0852 17.4443L15.9958 17.6232ZM14.927 16.858C14.927 16.9667 14.9934 17.0602 15.0679 17.1332C15.1451 17.2089 15.2484 17.2793 15.3573 17.3418C15.576 17.4671 15.8359 17.5709 16.0089 17.6286L16.0721 17.4389C15.9073 17.3839 15.6605 17.285 15.4568 17.1683C15.3547 17.1097 15.2678 17.0491 15.2078 16.9904C15.1451 16.9289 15.127 16.8846 15.127 16.858H14.927ZM15.2754 15.7998C15.2177 15.9152 15.1317 16.1044 15.0598 16.2999C14.9895 16.4913 14.927 16.7033 14.927 16.858H15.127C15.127 16.7425 15.1772 16.5604 15.2476 16.3689C15.3165 16.1815 15.3994 15.9991 15.4543 15.8893L15.2754 15.7998ZM16.6162 11.4526C16.6162 13.318 15.7257 15.1231 15.2816 15.7891L15.4481 15.9C15.9049 15.2147 16.8162 13.3711 16.8162 11.4526H16.6162ZM12.9381 6.14769C13.7515 6.14779 14.383 6.33405 14.8742 6.64438C15.3656 6.95482 15.723 7.39348 15.9815 7.90837C16.5004 8.94191 16.6162 10.273 16.6162 11.4526H16.8162C16.8162 10.2674 16.7013 8.89626 16.1602 7.81864C15.8888 7.27796 15.5089 6.80881 14.981 6.4753C14.4529 6.14166 13.783 5.9478 12.9381 5.94769L12.9381 6.14769ZM9.04594 11.4526C9.04594 10.5687 9.24415 9.24625 9.83335 8.14299C10.4204 7.04377 11.3898 6.16978 12.9396 6.14768L12.9367 5.9477C11.2948 5.97112 10.2681 6.90446 9.65693 8.04877C9.04797 9.18904 8.84594 10.5463 8.84594 11.4526H9.04594ZM10.7058 15.7738C10.3784 15.4463 9.04594 13.8487 9.04594 11.4526H8.84594C8.84594 13.9215 10.2162 15.567 10.5644 15.9152L10.7058 15.7738ZM11.0737 16.7828C11.0756 16.6536 11.0784 16.4934 11.0328 16.3201C10.9865 16.1445 10.8918 15.9598 10.7058 15.7738L10.5644 15.9152C10.7257 16.0765 10.8022 16.2302 10.8394 16.3711C10.8772 16.5145 10.8757 16.6489 10.8737 16.7798L11.0737 16.7828ZM11.073 16.858C11.073 16.8341 11.0733 16.8092 11.0737 16.7828L10.8737 16.7798C10.8734 16.806 10.873 16.8323 10.873 16.858H11.073ZM9.99107 17.6286C10.164 17.5709 10.424 17.4671 10.6426 17.3418C10.7516 17.2793 10.8548 17.2089 10.9321 17.1332C11.0066 17.0602 11.073 16.9667 11.073 16.858H10.873C10.873 16.8846 10.8548 16.9289 10.7921 16.9904C10.7321 17.0491 10.6453 17.1097 10.5432 17.1683C10.3395 17.285 10.0927 17.3839 9.92783 17.4389L9.99107 17.6286ZM7.65459 18.9651C8.72824 18.1598 9.66473 17.7374 9.99107 17.6286L9.92783 17.4389C9.57849 17.5553 8.62309 17.9887 7.53459 18.8051L7.65459 18.9651ZM6.00027 20.9437C6.10558 20.6278 6.58745 19.7654 7.65459 18.9651L7.53459 18.8051C6.43957 19.6263 5.93044 20.5207 5.81053 20.8805L6.00027 20.9437ZM12.9396 6.14768C12.9596 6.14739 12.9797 6.14725 13 6.14725V5.94725C12.9788 5.94725 12.9577 5.9474 12.9367 5.9477L12.9396 6.14768Z" fill="#34978B"/>
</svg>
