<svg width="48" height="44" viewBox="0 0 48 44" fill="none" xmlns="http://www.w3.org/2000/svg">
<path d="M24 33L14.865 21.175C13.3698 19.5567 12.4069 17.5823 12.0884 15.4818C11.77 13.3813 12.1092 11.241 13.0664 9.31034C14.0236 7.37965 15.5595 5.73799 17.4952 4.57654C19.4309 3.41509 21.6868 2.78165 24 2.75C27.2066 2.77905 30.27 3.97182 32.5192 6.06707C34.7684 8.16232 36.02 10.9893 36 13.9288C36.0012 16.493 35.0489 18.9811 33.3 20.9825L24 33ZM24 5.5C21.5878 5.52539 19.2852 6.42727 17.5977 8.00759C15.9103 9.58792 14.976 11.7175 15 13.9288C15.0101 15.947 15.8022 17.8963 17.235 19.4288L24 28.215L30.945 19.25C32.2652 17.7395 32.9894 15.8642 33 13.9288C33.024 11.7175 32.0897 9.58792 30.4023 8.00759C28.7149 6.42727 26.4122 5.52539 24 5.5Z" fill="#37E0CC"/>
<path d="M24 15.125C25.6569 15.125 27 13.8938 27 12.375C27 10.8562 25.6569 9.625 24 9.625C22.3431 9.625 21 10.8562 21 12.375C21 13.8938 22.3431 15.125 24 15.125Z" fill="#37E0CC"/>
<path d="M42 16.5H39V19.25H42V38.5H6V19.25H9V16.5H6C5.20435 16.5 4.44129 16.7897 3.87868 17.3055C3.31607 17.8212 3 18.5207 3 19.25V38.5C3 39.2293 3.31607 39.9288 3.87868 40.4445C4.44129 40.9603 5.20435 41.25 6 41.25H42C42.7957 41.25 43.5587 40.9603 44.1213 40.4445C44.6839 39.9288 45 39.2293 45 38.5V19.25C45 18.5207 44.6839 17.8212 44.1213 17.3055C43.5587 16.7897 42.7957 16.5 42 16.5Z" fill="#37E0CC"/>
</svg>
