<svg width="34" height="34" viewBox="0 0 34 34" fill="none" xmlns="http://www.w3.org/2000/svg">
<path d="M16.9477 25.2309H26.3115C26.6761 25.2513 27.0399 25.178 27.3682 25.0179C27.6965 24.8579 27.9783 24.6164 28.1867 24.3165C28.3952 24.0167 28.5234 23.6684 28.559 23.3049C28.5947 22.9415 28.5367 22.5749 28.3905 22.2402C27.8955 20.7442 25.9224 18.9499 25.9224 17.1844C25.9224 13.2656 25.9224 12.2344 23.9919 9.92987C23.3664 9.18885 22.592 8.58778 21.719 8.16574L20.6424 7.64324C20.4611 7.53493 20.3048 7.38951 20.1837 7.21652C20.0626 7.04353 19.9795 6.84688 19.9397 6.63949C19.8321 5.94155 19.4631 5.31067 18.9075 4.8748C18.3518 4.43893 17.6512 4.23071 16.9477 4.29237C16.257 4.25089 15.5755 4.46839 15.0365 4.9024C14.4975 5.33641 14.1396 5.95576 14.0327 6.63949C13.9844 6.85374 13.8894 7.05472 13.7547 7.22819C13.62 7.40165 13.4487 7.54335 13.2531 7.64324L12.1765 8.16574C11.304 8.58794 10.53 9.189 9.905 9.92987C7.97587 12.2344 7.97587 13.2656 7.97587 17.1844C7.97587 18.9499 6.09212 20.5641 5.59712 22.1495C5.29875 23.1079 5.13375 25.2309 7.63212 25.2309H16.9477Z" stroke="white" stroke-width="1.5" stroke-linecap="round" stroke-linejoin="round"/>
<path d="M21.4344 25.231C21.4465 25.8235 21.3388 26.4124 21.1177 26.9622C20.8965 27.5121 20.5665 28.0115 20.1474 28.4306C19.7283 28.8497 19.2288 29.1797 18.679 29.4009C18.1292 29.622 17.5403 29.7298 16.9478 29.7176C16.3552 29.7301 15.7662 29.6227 15.2162 29.4016C14.6663 29.1806 14.1668 28.8505 13.7477 28.4314C13.3287 28.0122 12.9988 27.5126 12.7779 26.9626C12.557 26.4125 12.4498 25.8235 12.4625 25.231" stroke="white" stroke-width="1.5" stroke-linecap="round" stroke-linejoin="round"/>
<circle cx="24.5" cy="7.5" r="5.5" fill="#FF0000"/>
<path d="M22.5597 10V9.36364L24.5284 7.32386C24.7386 7.10227 24.9119 6.90814 25.0483 6.74148C25.1866 6.57292 25.2898 6.41288 25.358 6.26136C25.4261 6.10985 25.4602 5.94886 25.4602 5.77841C25.4602 5.58523 25.4148 5.41856 25.3239 5.27841C25.233 5.13636 25.1089 5.02746 24.9517 4.9517C24.7945 4.87405 24.6174 4.83523 24.4205 4.83523C24.2121 4.83523 24.0303 4.87784 23.875 4.96307C23.7197 5.0483 23.6004 5.16856 23.517 5.32386C23.4337 5.47917 23.392 5.66098 23.392 5.86932H22.554C22.554 5.51515 22.6354 5.20549 22.7983 4.94034C22.9612 4.67519 23.1847 4.4697 23.4688 4.32386C23.7528 4.17614 24.0758 4.10227 24.4375 4.10227C24.803 4.10227 25.125 4.17519 25.4034 4.32102C25.6837 4.46496 25.9025 4.66193 26.0597 4.91193C26.2169 5.16004 26.2955 5.44034 26.2955 5.75284C26.2955 5.96875 26.2547 6.17992 26.1733 6.38636C26.0938 6.5928 25.9545 6.82292 25.7557 7.0767C25.5568 7.3286 25.2803 7.63447 24.9261 7.99432L23.7699 9.20455V9.24716H26.3892V10H22.5597Z" fill="white"/>
</svg>
