<svg width="22" height="22" viewBox="0 0 22 22" fill="none" xmlns="http://www.w3.org/2000/svg">
<path d="M14.3416 14.3168C18.155 14.255 21 11.4318 21 7.6584C21 4.79338 20.0517 5.74173 19.0976 6.7072C18.155 7.63937 16.244 9.5608 16.244 9.5608L12.4392 5.756C12.4392 5.756 14.3606 3.84504 15.2928 2.9024C16.2583 1.94835 16.2583 1 14.3416 1C10.5682 1 7.73362 3.84504 7.6832 7.6584C7.72315 8.58677 7.6832 10.512 7.6832 10.512C5.89019 12.3164 3.555 14.6526 1.976 16.2192C-0.812914 19.0195 2.98047 22.8129 5.7808 20.024C7.35028 18.4431 9.69309 16.1003 11.488 14.3168C11.488 14.3168 13.4132 14.2768 14.3416 14.3168Z" stroke="#37E0CC" stroke-width="2"/>
</svg>
