<svg width="65" height="64" viewBox="0 0 65 64" fill="none" xmlns="http://www.w3.org/2000/svg">
<path fill-rule="evenodd" clip-rule="evenodd" d="M30.3125 2.13188C21.7276 2.91138 13.7485 7.26388 8.74635 13.8963C5.7191 17.91 3.85572 22.2451 2.9766 27.3199C2.73835 28.6954 2.69622 29.396 2.6951 32C2.69385 34.6378 2.73335 35.2879 2.9796 36.6875C3.97485 42.3445 5.9881 46.8986 9.33447 51.0625C10.542 52.565 13.0671 55.0429 14.4156 56.0486C18.4765 59.0773 22.9146 61.0118 27.8125 61.8879C29.6575 62.2179 34.2053 62.3568 36.0488 62.1393C46.4585 60.9116 55.4263 54.596 59.942 45.3125C61.8635 41.3623 62.8293 37.4023 62.9602 32.9375C63.1127 27.7406 62.1072 23.1764 59.799 18.5874C55.8513 10.7395 48.8093 5.16951 39.94 2.87976C37.4605 2.23963 32.9685 1.89076 30.3125 2.13188ZM24.621 13.8725C20.1496 15.3761 16.2437 16.7514 15.9412 16.9286C14.898 17.5401 14.4853 18.4678 14.4641 20.25C14.442 22.1154 14.8533 22.875 15.886 22.875C16.9531 22.875 17.5 22.2048 17.5 20.8969C17.5 19.9033 17.7435 19.6113 18.9065 19.2095C19.4047 19.0374 20.8812 18.5298 22.1875 18.0815C23.4937 17.6331 26.3062 16.6664 28.4375 15.933C30.5687 15.1996 32.454 14.5728 32.6268 14.5399C32.9761 14.4736 44.0252 18.1389 47.3125 19.4114L48.0625 19.7016L48.2071 21.6946C48.2866 22.7906 48.3568 23.9604 48.3633 24.2938C48.3732 24.8086 48.4391 24.9641 48.8 25.325C49.1281 25.6531 49.329 25.75 49.6812 25.75C50.2082 25.75 50.8146 25.4714 50.9863 25.1504C51.0517 25.0283 51.1237 23.5804 51.1463 21.9329C51.1903 18.7254 51.1587 18.5025 50.5382 17.659C49.9415 16.8478 49.5332 16.6879 39.5 13.3394C36.5093 12.3414 33.7673 11.4379 33.4066 11.3318L32.7507 11.1388L24.621 13.8725ZM31.944 19.3908C30.8917 19.6373 29.586 20.3899 28.7388 21.238C26.7133 23.2659 26.2281 26.3084 27.3258 30.0968C27.7698 31.6286 28.1977 32.4501 29.0018 33.3145C29.8012 34.1738 29.9827 34.6295 29.6983 35.0635C29.5917 35.2261 28.8442 35.6754 27.9738 36.1C25.4627 37.325 23.9441 38.4886 22.6092 40.2109L22.1067 40.8593L23.0393 41.9609C24.8866 44.1429 26.5925 45.6601 28.875 47.1513C30.3206 48.0958 32.4858 49.25 32.8118 49.25C33.142 49.25 35.5636 47.9655 37 47.0285C39.343 45.5 41.9903 43.0598 43.0916 41.4135L43.5257 40.7645L42.9658 40.0385C41.596 38.2621 39.4422 36.7545 36.6037 35.5851C35.6313 35.1845 35.6582 34.3918 36.6801 33.3368C37.4967 32.4936 38.0349 31.4121 38.4478 29.7841C39.084 27.2764 39.0966 25.4215 38.4895 23.6569C37.8416 21.7739 36.077 20.1316 34.0181 19.4955C33.1637 19.2315 32.7193 19.209 31.944 19.3908ZM15.3025 24.7293C14.6897 25.1131 14.5758 25.5569 14.6695 27.1951C15.1305 35.268 18.0758 41.9225 23.5216 47.1951C25.7505 49.3531 28.0775 51.0291 31.2125 52.7344L32.8525 53.6264L34.4575 52.7305C37.6331 50.9579 39.367 49.7531 41.5 47.837C45.6296 44.1275 48.5286 39.3456 50.0075 33.8043C50.3757 32.4241 50.8732 29.4668 50.8743 28.6506C50.8756 27.7906 49.8938 27.3503 49.0026 27.8111C48.573 28.0333 48.5632 28.0614 48.3087 29.8125C47.7202 33.8613 46.68 36.855 44.8187 39.8569C42.7576 43.181 40.6255 45.3608 37.3167 47.527C35.535 48.6935 33.2728 49.875 32.8213 49.875C32.395 49.875 30.0085 48.6353 28.4375 47.5978C23.7458 44.4993 20.2783 40.0574 18.5737 34.9624C17.7966 32.6399 17.3998 30.2301 17.174 26.4615C17.1135 25.4516 17.0531 25.181 16.8315 24.926C16.4641 24.5034 15.7996 24.4178 15.3025 24.7293Z" fill="#37E0CC"/>
</svg>
